<svg width="212" height="212" xmlns="http://www.w3.org/2000/svg" xmlns:xlink="http://www.w3.org/1999/xlink" overflow="hidden"><defs><clipPath id="clip0"><rect x="534" y="254" width="212" height="212"/></clipPath></defs><g clip-path="url(#clip0)" transform="translate(-534 -254)"><path d="M620.889 326.875 649.003 326.875 620.958 278.292C594.995 284.363 573.452 302.39 562.898 326.875Z" fill="#FFFFFF"/><path d="M668.13 342.333 668.079 342.362 673.308 351.416 701.392 302.804C685.542 285.744 663.3 276.061 640.013 276.083 636.74 276.09 633.47 276.286 630.219 276.671Z" fill="#FFFFFF"/><path d="M664.53 384.292 720.346 384.292C728.018 358.88 723.224 331.337 707.416 310.012Z" fill="#FFFFFF"/><path d="M659.137 393.125 631.023 393.125 659.069 441.708C685.031 435.638 706.574 417.61 717.126 393.125Z" fill="#FFFFFF"/><path d="M611.895 377.667 611.948 377.638 606.683 368.522 578.608 417.163C594.458 434.242 616.712 443.939 640.013 443.917 643.286 443.91 646.557 443.714 649.807 443.329Z" fill="#FFFFFF"/><path d="M615.428 335.708 559.681 335.708C552.015 361.098 556.794 388.617 572.573 409.935Z" fill="#FFFFFF"/></g></svg>